<mxfile host="app.diagrams.net" modified="2024-01-02T01:26:33.041Z" agent="Mozilla/5.0 (Windows NT 10.0; Win64; x64) AppleWebKit/537.36 (KHTML, like Gecko) Chrome/120.0.0.0 Safari/537.36" version="22.1.16" etag="5dMIE0n3yrJerSmFcFXa" type="github">
  <diagram name="페이지-1" id="Mo_GU-bny2W42vjwv22k">
    <mxGraphModel>
      <root>
        <mxCell id="0" />
        <mxCell id="1" parent="0" />
      </root>
    </mxGraphModel>
  </diagram>
</mxfile>
